# xmcd CD database file
#
# Track frame offsets:
#	182
#	27525
#	54152
#	76180
#	92087
#	114027
#	135912
#	154545
#	193545
#	225510
#
# Disc length: 3695 seconds
#
# Revision: 0
# Processed by: cddbd v1.5.1PL0 Copyright (c) Steve Scherf et al.
# Submitted via: CDex 1.51
#
DISCID=640e6d0a
DTITLE=Art Farmer and Benny Golson - The jazztet Disc 2
DYEAR=1961
DGENRE=Jazz
TTITLE0=Blues on down
TTITLE1=Wonder why
TTITLE2=Bean Bag
TTITLE3=Lament
TTITLE4=Django
TTITLE5=Milano
TTITLE6=Bel
TTITLE7=Two degrees east, three degrees west
TTITLE8=New-York 19
TTITLE9=Odds against tomorrow
EXTD=YEAR: 1961
EXTT0=
EXTT1=
EXTT2=
EXTT3=
EXTT4=
EXTT5=
EXTT6=
EXTT7=
EXTT8=
EXTT9=
PLAYORDER=
